<?xml version="1.0" encoding="UTF-8"?>
<svg xmlns="http://www.w3.org/2000/svg" viewBox="0 0 74.823 21.902" overflow="visible"><path d="M 18.346 2.601 C 18.346 1.164 19.515 0 20.956 0 C 22.397 0 23.566 1.164 23.566 2.601 C 23.566 4.038 22.397 5.203 20.956 5.203 C 19.515 5.203 18.346 4.039 18.346 2.601 Z M 18.347 21.674 C 16.897 21.674 16.028 20.379 16.028 19.071 C 16.028 16.687 17.478 13.004 17.478 11.919 C 17.478 11.487 17.188 11.052 16.608 11.052 C 16.219 11.052 15.927 11.12 15.722 11.196 C 15.619 11.672 15.453 12.225 15.189 12.817 C 14.605 14.129 13.491 15.992 12.432 17.381 C 10.158 20.392 8.484 21.902 6.746 21.902 C 5.586 21.902 4.644 20.857 4.186 19.146 L 2.836 14.104 C 2.336 12.272 2.249 11.282 1.379 11.282 C 0.922 11.282 0.611 11.464 0.35 11.623 L 0 10.879 C 0 10.879 2.41 7.38 4.865 7.38 C 5.935 7.38 6.15 8.156 6.452 10.096 C 6.777 12.189 7 13.493 7.128 14 C 7.504 15.739 7.763 16.701 8.343 16.701 C 9.648 16.701 11.1 13.503 11.1 12.203 C 11.1 11.417 10.774 11.12 10.38 11.12 C 10.017 11.12 9.704 11.298 9.442 11.458 L 9.214 11.12 C 9.214 11.12 10.61 7.217 13.56 7.217 C 15.241 7.217 15.839 8.273 15.877 9.701 C 16.909 8.665 18.669 7.152 20.14 7.152 C 21.299 7.152 21.83 7.802 21.83 9.318 C 21.83 10.924 20.67 15.82 20.67 17.336 C 20.67 17.998 21.117 18.204 21.744 18.204 C 22.35 18.204 23.025 17.913 23.662 17.517 C 23.683 15.787 24.822 13.434 24.822 12.146 C 24.822 11.71 24.531 11.277 23.952 11.277 C 23.242 11.277 22.752 11.619 22.752 11.619 L 22.403 10.875 C 22.403 10.875 25.419 7.378 27.286 7.378 C 28.445 7.378 29.17 8.028 29.17 9.544 C 29.17 10.121 29.126 10.692 29.05 11.277 C 30.285 9.18 32.07 7.378 34.1 7.378 C 36.13 7.378 36.71 8.461 36.71 10.413 C 36.71 10.7 36.697 10.987 36.672 11.28 C 38.015 8.896 40.335 7.38 42.075 7.38 C 43.813 7.38 44.973 8.031 44.973 10.415 C 44.973 13.419 43.669 15.617 43.669 17.133 C 43.669 18.217 44.062 18.434 44.539 18.434 C 44.962 18.434 45.47 18.24 45.989 17.951 C 45.87 17.495 45.809 17.001 45.809 16.472 C 45.809 11.922 49.571 6.936 55.426 6.936 C 57.881 6.936 59.43 8.4 59.43 10.404 C 59.43 15.055 55.151 17.441 50.81 17.388 C 51.3 18.313 52.365 18.799 54.394 18.799 L 54.392 18.801 C 56.831 18.801 58.643 18.099 60.07 17.109 C 60.05 16.905 60.039 16.696 60.039 16.481 C 60.039 10.953 63.466 7.163 68.736 7.163 C 72.525 7.163 74.823 9.4 74.823 13.201 C 74.823 18.184 71.926 21.899 66.126 21.899 C 63.526 21.899 61.277 20.711 60.414 18.541 C 58.743 19.933 55.753 21.674 52.181 21.674 C 49.476 21.674 47.547 20.813 46.561 19.273 C 46.442 19.387 46.321 19.498 46.197 19.609 C 44.517 21.086 42.795 21.898 41.057 21.898 C 39.317 21.898 38.737 20.596 38.737 19.513 C 38.737 17.561 39.897 14.962 39.897 13.456 C 39.924 12.487 39.487 11.928 38.883 11.928 C 37.003 11.928 35.26 15.634 35.26 19.298 C 35.26 20.358 35.549 21.466 35.84 21.899 C 32.359 21.899 31.201 21.031 31.201 18.215 C 31.201 16.481 32.071 14.962 32.071 13.447 C 32.071 12.472 31.784 11.93 31.057 11.93 C 29.752 11.93 27.722 14.747 27.722 18.865 C 27.722 20.402 28.072 21.338 28.302 21.899 C 25.667 21.899 24.22 21.012 23.795 18.993 C 22.377 20.383 20.485 21.674 18.347 21.674 Z M 55.093 11.269 C 55.093 10.619 54.793 9.97 53.923 9.97 C 52.183 9.97 50.456 12.678 50.456 15.603 C 50.456 15.885 50.472 16.15 50.507 16.396 C 52.504 15.955 55.093 13.611 55.093 11.269 Z M 70.186 13.234 C 70.186 11.282 69.51 10.199 68.156 10.199 C 66.216 10.199 64.676 13.135 64.676 15.833 C 64.676 17.999 65.546 18.867 66.706 18.867 C 68.776 18.867 70.186 15.931 70.186 13.234 Z" fill="rgb(21, 21, 23)"></path></svg>
