<svg xmlns="http://www.w3.org/2000/svg" aria-hidden="true" role="presentation" style="pointer-events: none; position: absolute; inset: 0px; width: 100%; height: 100%; overflow: visible; shape-rendering: geometricprecision;"><path d="M 10 0.5 H 230 A 9.5 9.5 0 0 1 239.5 10 V 93 A 9.5 9.5 0 0 1 230 102.5 H 10 A 9.5 9.5 0 0 1 0.5 93 V 10 A 9.5 9.5 0 0 1 10 0.5 Z" fill="none" opacity="1" pathlength="1" stroke="rgba(0, 0, 0, 0.11)" stroke-linecap="round" stroke-linejoin="round" stroke-width="1" vector-effect="non-scaling-stroke"></path><path d="M 10 0.5 H 230 A 9.5 9.5 0 0 1 239.5 10 V 93 A 9.5 9.5 0 0 1 230 102.5 H 10 A 9.5 9.5 0 0 1 0.5 93 V 10 A 9.5 9.5 0 0 1 10 0.5 Z" fill="none" opacity="1" pathlength="1" stroke="rgb(124, 58, 237)" stroke-dasharray="1" stroke-dashoffset="0" stroke-linecap="round" stroke-linejoin="round" stroke-width="1" vector-effect="non-scaling-stroke"></path></svg>
